Coordinates
version=1
nRows=9
nColumns=24
inDegrees=yes

Units are S.I. units (second, meters, Newtons, ...)
Angles are in degrees.

endheader
time	pelvis_tilt	pelvis_list	pelvis_rotation	pelvis_tx	pelvis_ty	pelvis_tz	hip_flexion_r	hip_adduction_r	hip_rotation_r	knee_angle_r	ankle_angle_r	subtalar_angle_r	mtp_angle_r	hip_flexion_l	hip_adduction_l	hip_rotation_l	knee_angle_l	ankle_angle_l	subtalar_angle_l	mtp_angle_l	lumbar_extension	lumbar_bending	lumbar_rotation
      0.01000000	     61.35269649	     -0.85167900	     -1.82462793	      0.65134952	      1.01463860	     -0.20468203	      9.57851783	     -0.35909860	      9.86102939	    -16.10425522	    -20.71158343	     22.61967542	     48.05083100	     -4.73174118	    -10.50629402	      3.11289657	    -54.79458371	    -11.67487383	     28.77145934	     31.35147177	      0.00000000	      0.00000000	      0.00000000
      0.02000000	     61.35463535	     -0.80236772	     -1.86393270	      0.65137709	      1.01468144	     -0.20482470	      9.59351618	     -0.40249231	     10.12187440	    -16.17486901	    -20.09338757	     23.76910513	     48.19998825	     -4.73747052	    -10.45731460	      3.07371568	    -54.79243532	    -11.67516767	     28.76586240	     31.36215082	      0.00000000	      0.00000000	      0.00000000
      0.03000000	     61.33988312	     -0.78248995	     -1.88402150	      0.65137174	      1.01470699	     -0.20486838	      9.61042078	     -0.38069384	     10.20502142	    -16.17702232	    -19.99783903	     24.00637272	     48.35648353	     -4.72426851	    -10.43831083	      3.05194449	    -54.78950327	    -11.67717347	     28.77313948	     31.36593348	      0.00000000	      0.00000000	      0.00000000
      0.04000000	     61.31270957	     -0.78713247	     -1.88922619	      0.65134934	      1.01471255	     -0.20484082	      9.62676863	     -0.32376674	     10.17005216	    -16.13486479	    -20.28567250	     23.58220303	     48.51774109	     -4.69612509	    -10.44524316	      3.04326321	    -54.78847271	    -11.68030966	     28.78939737	     31.36479876	      0.00000000	      0.00000000	      0.00000000
      0.05000000	     61.27935890	     -0.80737875	     -1.88466219	      0.65133050	      1.01470654	     -0.20479443	      9.64181501	     -0.25888355	     10.08027183	    -16.07443507	    -20.79417771	     22.78611405	     48.68003101	     -4.65855382	    -10.47099186	      3.04219323	    -54.79194865	    -11.68392661	     28.80997709	     31.36099461	      0.00000000	      0.00000000	      0.00000000
      0.06000000	     61.24611100	     -0.83297807	     -1.87557815	      0.65132890	      1.01469705	     -0.20476805	      9.65691702	     -0.20241278	      9.98529358	    -16.01707698	    -21.37283082	     21.88086913	     48.84008081	     -4.61766642	    -10.50623348	      3.04326216	    -54.80124020	    -11.68747570	     28.83045475	     31.35650219	      0.00000000	      0.00000000	      0.00000000
      0.07000000	     61.21717355	     -0.85616241	     -1.86704651	      0.65134325	      1.01468165	     -0.20476186	      9.67421362	     -0.16050433	      9.91412849	    -15.97670607	    -21.90399389	     21.06618974	     48.99713282	     -4.57905104	    -10.54179746	      3.04220474	    -54.81572703	    -11.69057244	     28.84726103	     31.35275326	      0.00000000	      0.00000000	      0.00000000
      0.08000000	     61.19405779	     -0.87328221	     -1.86330557	      0.65136131	      1.01465567	     -0.20475686	      9.69527443	     -0.13299546	      9.87648721	    -15.95937362	    -22.31179675	     20.46642910	     49.15468261	     -4.54673785	    -10.57097641	      3.03685868	    -54.83304886	    -11.69295047	     28.85798444	     31.35056574	      0.00000000	      0.00000000	      0.00000000
      0.09000000	     61.17639049	     -0.88381809	     -1.86672519	      0.65137288	      1.01462343	     -0.20474272	      9.72034243	     -0.11721946	      9.86876394	    -15.96414411	    -22.56236821	     20.13559017	     49.32133274	     -4.52260334	    -10.59028773	      3.02734768	    -54.85005121	    -11.69434226	     28.86143936	     31.35023724	      0.00000000	      0.00000000	      0.00000000
